<svg id="Layer_1" data-name="Layer 1" xmlns="http://www.w3.org/2000/svg" viewBox="0 0 340.58 191.19"><defs><style>.cls-1,.cls-5{fill:#333;}.cls-1,.cls-4{stroke:#333;stroke-width:3px;}.cls-1,.cls-2,.cls-3,.cls-4{stroke-miterlimit:10;}.cls-2{fill:#fcce12;}.cls-2,.cls-3{stroke:#fff;stroke-width:2px;}.cls-3{fill:#f8dd54;}.cls-4{fill:none;}</style></defs><path class="cls-1" d="M337,332.14c0-17.79-18.71-32.2-41.79-32.2s-41.78,14.41-41.78,32.2" transform="translate(-133.79 -187.84)"/><path class="cls-2" d="M369.14,222.35s32.24-14.91,34.44-17.7-6,40.32-13.78,50.7-40.32,20-40.32,20Z" transform="translate(-133.79 -187.84)"/><path class="cls-2" d="M408,268.19s28.75-12,36.93-10.62-8.38,19.94-14.77,31.12S389.8,334,358.86,327.82s0-36.93,0-36.93Z" transform="translate(-133.79 -187.84)"/><path class="cls-2" d="M180.85,269.51S167,239,166.82,228.4s44.71,22.56,46.51,26,34.34,55.69,34.34,55.69l-65.88-35.73Z" transform="translate(-133.79 -187.84)"/><path class="cls-2" d="M410,305.26s31-4.59,37.16,7.59,7.35,6.85,1.37,11.11-18.17,11.65-18.17,11.65H354.27s-2.2-4.6,1.6-7.79S410,305.26,410,305.26Z" transform="translate(-133.79 -187.84)"/><g id="Layer_4" data-name="Layer 4"><path class="cls-3" d="M264.64,300.27s-25.76-21.36-32.14-50.11,7-58.49,7.38-59.29,26.95,19.37,33.74,44.12,4.19,61.29,4.19,61.29Z" transform="translate(-133.79 -187.84)"/><path class="cls-3" d="M161.23,302.11s-18-20.21-18.37-28.39,41.32-6.39,54.5,0,44.72,29.55,47.31,35.73-4.85,22.76-13.9,20.77S161.23,302.11,161.23,302.11Z" transform="translate(-133.79 -187.84)"/></g><path class="cls-2" d="M281,227.41s10.58-35.34,11.28-38.33,22.85,23.55,21.85,42.52-5.59,55.5-13.37,59.09-19.76,0-19.76,0Z" transform="translate(-133.79 -187.84)"/><path class="cls-2" d="M314.1,228.38s14.22-30.52,24.6-33.12,8.38,0,8.38,0,2.31,46.32.16,55.5-23.11,48.71-31.1,47.51-15-6-15.57-11.17S314.1,228.38,314.1,228.38Z" transform="translate(-133.79 -187.84)"/><path class="cls-2" d="M375.63,257.75s27.35-15,41.92-13.18S403.78,296.88,386,307.06s-37.33,24.75-42.52,11.78S365.65,266.33,375.63,257.75Z" transform="translate(-133.79 -187.84)"/><path class="cls-2" d="M320.33,296.48l5.59,4.79s10.38,5,26.15-9.38,33.74-59.29,32.74-67.28-19-4.19-30.74,7.59S314.34,276.91,320.33,296.48Z" transform="translate(-133.79 -187.84)"/><path class="cls-2" d="M275,296.28H285.8S297,263.84,290,244.42s-12.58-24.6-15-27.09-19.17,22.45-18,36.83S266.43,288.29,275,296.28Z" transform="translate(-133.79 -187.84)"/><path class="cls-2" d="M237.09,332.21s-15.57-24.95-31.54-27.35-58.1-3-60.89-1.79,2.79,30.74,22.36,30.54S237.09,332.21,237.09,332.21Z" transform="translate(-133.79 -187.84)"/><path class="cls-2" d="M225.65,292.16S199.76,219,201,206.24s42.77,23.16,44.25,25.36,18,70.51,18,70.51-5,14.16-14.18,7.94S225.65,292.16,225.65,292.16Z" transform="translate(-133.79 -187.84)"/><line class="cls-4" y1="145.76" x2="340.58" y2="145.76"/><path class="cls-5" d="M249.71,377.81a1.56,1.56,0,0,1-.38-1.09l.12-7.76c.11-3.76.17-6.68.17-8.74q0-10.77-1.53-16.51a2.82,2.82,0,0,1,2.24-1.06,10.23,10.23,0,0,1,4,.76,8.44,8.44,0,0,1,3,2.06,9,9,0,0,1,2.3,6,10.64,10.64,0,0,1-1.89,6.2,12.3,12.3,0,0,1-5.49,4.25l.12,4.67.12,2.45c0,.52,0,1.28,0,2.26q.18,3.1.18,5a2,2,0,0,1-.47,1.39,1.94,1.94,0,0,1-1.48.51A1.32,1.32,0,0,1,249.71,377.81Zm5.79-21.68a8.33,8.33,0,0,0,1.09-4.23v0a15.23,15.23,0,0,0-.3-2.68,3.22,3.22,0,0,0-.65-1.11c-.31-.37-.49-.58-.53-.65a10.19,10.19,0,0,0-2.18-1.43l-1.54-.88q0,2.36.36,7.31l.35,7.3A12.32,12.32,0,0,0,255.5,356.13Z" transform="translate(-133.79 -187.84)"/><path class="cls-5" d="M267.15,378.06a1.18,1.18,0,0,1-1-1.29V349.91a12.31,12.31,0,0,0-.35-2.36,8.71,8.71,0,0,1-.42-2.36v-.13a10.54,10.54,0,0,1,1.48-1.67,17.32,17.32,0,0,0,2.18-.18,14.3,14.3,0,0,1,2.19-.19,4.14,4.14,0,0,1,1.83.44c.59.29.88.64.88,1,0,.93-.9,1.39-2.71,1.39h-.83a6.6,6.6,0,0,0-.83-.05,2.55,2.55,0,0,0-.65.05,36,36,0,0,0,.24,3.79l.12,1.29.12,2.55c0,.58-.06,1.48-.18,2.68l-.12,2.59.83-.14a8.49,8.49,0,0,1,1.95-.28,2,2,0,0,1,1.18.39,1.15,1.15,0,0,1,.53.9,1.36,1.36,0,0,1-.45,1,1.49,1.49,0,0,1-1.09.44l-.71-.05h-.76a1.81,1.81,0,0,0-1.24.33v14.28l3.3-.14c2.25,0,3.37.4,3.37,1.2v.19a2.5,2.5,0,0,1-1.3.9,7.59,7.59,0,0,1-1.83.44l-1.95.05H269.1A7,7,0,0,1,267.15,378.06Z" transform="translate(-133.79 -187.84)"/><path class="cls-5" d="M285.18,377.67a2.67,2.67,0,0,1-.5-1.64,35.66,35.66,0,0,1,.24-3.74l.12-1.21.12-2.45c0-1.07-.14-3.48-.42-7.21s-.41-6.13-.41-7.21c0-.09,0-.27,0-.53s0-.67,0-1.23.06-1.37.06-2.26c0-2.25-.2-3.69-.59-4.3a14.85,14.85,0,0,0-1.54.14l-1.65.09a2.65,2.65,0,0,1-1.36-.35,1,1,0,0,1-.59-.9c0-.37.47-.69,1.42-1a37.8,37.8,0,0,1,7-.79c1.34-.06,2.15-.09,2.42-.09a2.46,2.46,0,0,1,1.3.37,1.1,1.1,0,0,1,.59.93,1.06,1.06,0,0,1-.5.9,2.21,2.21,0,0,1-1.27.34l-1.06,0c-.32,0-.67,0-1.06,0H287a43.35,43.35,0,0,1,.42,5.69l-.06,3q-.06,1.33-.06,3c0,1.48.08,3.25.24,5.32.19,2.56.29,4.33.29,5.32,0,1.17.08,2.55.24,4.16s.23,3,.23,4.16c0,1.51-.57,2.26-1.71,2.26A1.64,1.64,0,0,1,285.18,377.67Z" transform="translate(-133.79 -187.84)"/><path class="cls-5" d="M306.73,377.74a1,1,0,0,1-.44-.92v-6.06a10.21,10.21,0,0,0-2.9-.74c-1.41-.21-2.75-.35-4-.42a6.71,6.71,0,0,0-.94,2.36l-.24.93c0,.21-.16.69-.35,1.43a14.75,14.75,0,0,1-.65,1.92,6.76,6.76,0,0,1-.71,1.27c-1.5,0-2.36-.31-2.6-.92.43-.5.93-1.95,1.48-4.35l1.94-8.46q1.31-6,2.4-10.26A47.24,47.24,0,0,1,302,346.4c.9-2.13,1.77-3.19,2.59-3.19a3.83,3.83,0,0,1,1.89.37,82.12,82.12,0,0,0,1.12,8.92,68,68,0,0,1,1.18,9.48,54.46,54.46,0,0,0,.65,7,61.37,61.37,0,0,1,.59,7.45c0,1-.64,1.57-1.94,1.57A2.63,2.63,0,0,1,306.73,377.74Zm-.5-9.8c-.12-1.36-.32-3-.59-5q-1.36-10.44-1.36-12.81v-.36c-.39.3-.94,1.7-1.62,4.18s-1.33,5.14-1.92,8a45.54,45.54,0,0,0-.95,5.64,24.1,24.1,0,0,0,5.26.56A6.71,6.71,0,0,0,306.23,367.94Z" transform="translate(-133.79 -187.84)"/><path class="cls-5" d="M318.42,378.09a1.24,1.24,0,0,1-.62-1,2.8,2.8,0,0,1,.23-1,4,4,0,0,0,.18-1q0-4.11-.59-15.81-.6-10-.59-15.77a.78.78,0,0,1,.41-.67,1.89,1.89,0,0,1,1-.25,2,2,0,0,1,1.23.39,1.15,1.15,0,0,1,.54.95c0,1.85.11,4.62.35,8.32q.3,6.15.3,8.32l.05.56v1.11q.18,4,.18,12v1.2h4.55c.82.46,1.24.92,1.24,1.39a1.16,1.16,0,0,1-.45.9,1.5,1.5,0,0,1-1,.39,4.24,4.24,0,0,1-.65-.09l-.24,0a9.53,9.53,0,0,1-1.12,0h-1a8.75,8.75,0,0,0-.94,0,2.57,2.57,0,0,1-3,.12Z" transform="translate(-133.79 -187.84)"/><path class="cls-5" d="M331.55,378.43c-.63-.27-.95-.6-.95-1a1.19,1.19,0,0,1,.36-.9,1.36,1.36,0,0,1,1-.34,5.92,5.92,0,0,1,1.71.37,8.75,8.75,0,0,0,1.54.37,3.08,3.08,0,0,0,2-.77,5.21,5.21,0,0,0,1.45-2,10.09,10.09,0,0,0,1.06-4.16,12.26,12.26,0,0,0-.79-4.18,21,21,0,0,0-2.16-4.28l-.94-1.48c-1-1.54-1.74-2.76-2.28-3.65a18.15,18.15,0,0,1-1.38-2.91,11.62,11.62,0,0,1-.89-4.3,7,7,0,0,1,.74-3.15,6.56,6.56,0,0,1,2.21-2.49,5.94,5.94,0,0,1,3.66-1.11A4.75,4.75,0,0,1,340,343a3.12,3.12,0,0,1,1.42,1.23l-1,1a4.64,4.64,0,0,1-2.3-.46,3.14,3.14,0,0,0-1.86.8,5,5,0,0,0-1.21,1.65,4.55,4.55,0,0,0-.35,1.75,11,11,0,0,0,.62,3.59,16.64,16.64,0,0,0,1.62,3.44l4.13,6.47a15.12,15.12,0,0,1,1.59,3.75,14.89,14.89,0,0,1,.6,4.16,9.78,9.78,0,0,1-1.89,5.73,7.14,7.14,0,0,1-2.6,2.2,7.68,7.68,0,0,1-3.54.81A10,10,0,0,1,331.55,378.43Z" transform="translate(-133.79 -187.84)"/></svg>